<svg id="svg" version="1.1" xmlns="http://www.w3.org/2000/svg" xmlns:xlink="http://www.w3.org/1999/xlink" width="400" height="400" viewBox="0, 0, 400,400"><g id="svgg"><path id="path0" d="M183.900 194.432 C 183.247 194.813,183.200 196.308,183.200 216.820 L 183.200 238.800 161.396 238.800 L 139.591 238.800 139.696 255.100 L 139.800 271.400 161.500 271.503 L 183.200 271.607 183.200 293.403 L 183.200 315.200 200.000 315.200 L 216.800 315.200 216.800 293.403 L 216.800 271.607 238.500 271.503 L 260.200 271.400 260.304 255.100 L 260.409 238.800 238.604 238.800 L 216.800 238.800 216.800 216.814 C 216.800 195.487,216.777 194.816,216.026 194.414 C 214.979 193.854,184.864 193.871,183.900 194.432 " stroke="none" fill="#d42c2c" fill-rule="evenodd"></path><path id="path1" d="M287.200 6.435 C 287.200 6.636,286.761 6.800,286.224 6.800 C 285.687 6.800,285.136 6.980,285.000 7.200 C 284.864 7.420,284.403 7.600,283.976 7.600 C 283.549 7.600,283.200 7.758,283.200 7.950 C 283.200 8.143,282.703 8.399,282.096 8.521 C 281.489 8.642,280.454 9.204,279.796 9.770 C 279.138 10.336,278.471 10.799,278.314 10.800 C 277.852 10.800,275.600 13.132,275.600 13.610 C 275.600 13.851,275.420 13.936,275.200 13.800 C 274.980 13.664,274.800 13.799,274.800 14.101 C 274.800 14.402,274.440 15.036,274.000 15.508 C 273.560 15.980,273.200 16.554,273.200 16.783 C 273.200 17.012,273.020 17.200,272.800 17.200 C 272.580 17.200,272.400 17.470,272.400 17.800 C 272.400 18.130,272.220 18.400,272.000 18.400 C 271.780 18.400,271.600 18.861,271.600 19.424 C 271.600 19.987,271.458 20.360,271.285 20.252 C 271.112 20.145,270.930 20.540,270.881 21.129 C 270.833 21.718,270.615 22.260,270.397 22.333 C 270.178 22.407,270.000 23.251,270.000 24.210 C 270.000 25.168,269.820 26.064,269.600 26.200 C 269.379 26.337,269.200 28.137,269.200 30.224 C 269.200 32.475,269.362 34.000,269.600 34.000 C 269.820 34.000,270.000 34.722,270.000 35.605 C 270.000 36.488,270.180 37.568,270.400 38.005 C 270.620 38.442,270.980 39.158,271.200 39.595 C 271.420 40.032,271.600 40.672,271.600 41.018 C 271.600 41.364,271.780 41.536,272.000 41.400 C 272.220 41.264,272.400 41.433,272.400 41.776 C 272.400 42.119,272.580 42.400,272.800 42.400 C 273.020 42.400,273.200 42.678,273.200 43.018 C 273.200 43.358,273.653 44.090,274.208 44.644 C 274.762 45.198,275.138 45.777,275.042 45.931 C 274.947 46.085,275.505 46.748,276.281 47.405 C 277.057 48.062,278.131 49.023,278.667 49.539 C 280.045 50.866,285.503 53.600,286.775 53.600 C 287.361 53.600,288.030 53.790,288.262 54.022 C 289.122 54.882,302.400 54.067,302.400 53.155 C 302.400 52.960,302.850 52.800,303.400 52.800 C 303.950 52.800,304.400 52.620,304.400 52.400 C 304.400 52.180,304.760 52.000,305.200 52.000 C 305.640 52.000,306.000 51.864,306.000 51.698 C 306.000 51.531,306.551 51.151,307.225 50.853 C 309.382 49.898,314.499 44.450,314.234 43.392 C 314.096 42.842,314.417 41.585,315.048 40.207 C 316.292 37.491,317.189 34.283,317.195 32.529 C 317.198 31.829,317.470 30.987,317.800 30.657 C 318.492 29.966,318.668 24.800,318.000 24.800 C 317.780 24.800,317.600 24.080,317.600 23.200 C 317.600 22.320,317.420 21.600,317.200 21.600 C 316.980 21.600,316.800 21.347,316.800 21.038 C 316.800 20.372,315.132 17.059,314.700 16.867 C 314.535 16.793,314.400 16.499,314.400 16.213 C 314.400 15.927,313.230 14.488,311.800 13.015 C 310.370 11.542,309.200 10.473,309.200 10.638 C 309.200 10.804,308.778 10.543,308.262 10.058 C 307.093 8.960,304.467 7.600,303.515 7.600 C 303.122 7.600,302.800 7.420,302.800 7.200 C 302.800 6.980,302.260 6.800,301.600 6.800 C 300.940 6.800,300.400 6.613,300.400 6.385 C 300.400 6.112,298.130 5.986,293.800 6.020 C 290.127 6.048,287.200 6.232,287.200 6.435 M221.132 45.205 C 220.765 45.424,220.000 45.642,219.432 45.689 C 218.865 45.736,218.400 45.915,218.400 46.087 C 218.400 46.259,218.128 46.400,217.795 46.400 C 217.234 46.400,215.663 47.130,215.200 47.605 C 215.090 47.718,214.150 48.239,213.112 48.762 C 212.073 49.286,211.319 49.868,211.435 50.057 C 211.552 50.246,211.444 50.400,211.195 50.400 C 210.946 50.400,210.473 50.670,210.143 51.000 C 209.813 51.330,209.639 51.600,209.756 51.600 C 209.873 51.600,209.256 52.306,208.384 53.169 C 207.513 54.031,206.800 55.021,206.800 55.369 C 206.800 55.716,206.620 56.000,206.400 56.000 C 206.180 56.000,206.000 56.281,206.000 56.624 C 206.000 56.967,205.820 57.136,205.600 57.000 C 205.380 56.864,205.200 57.123,205.200 57.576 C 205.200 58.029,205.058 58.400,204.885 58.400 C 204.712 58.400,204.540 58.802,204.503 59.294 C 204.466 59.786,204.248 60.251,204.018 60.327 C 203.788 60.404,203.600 60.992,203.600 61.633 C 203.600 62.275,203.420 62.800,203.200 62.800 C 202.951 62.800,202.800 65.133,202.800 69.000 C 202.800 72.867,202.951 75.200,203.200 75.200 C 203.420 75.200,203.600 75.729,203.600 76.376 C 203.600 77.023,203.780 77.664,204.000 77.800 C 204.220 77.936,204.400 78.487,204.400 79.024 C 204.400 79.561,204.546 80.000,204.725 80.000 C 204.904 80.000,205.298 80.630,205.600 81.400 C 205.902 82.170,206.296 82.800,206.475 82.800 C 206.654 82.800,206.800 82.974,206.800 83.187 C 206.800 83.539,207.389 84.255,210.423 87.594 C 212.089 89.427,215.196 91.216,216.254 90.951 C 216.762 90.823,218.128 90.994,219.289 91.331 C 220.450 91.667,222.210 92.132,223.200 92.364 C 225.687 92.947,234.000 93.271,234.000 92.785 C 234.000 92.573,234.551 92.400,235.224 92.400 C 235.937 92.400,236.344 92.233,236.200 92.000 C 236.060 91.773,236.396 91.600,236.976 91.600 C 237.539 91.600,238.000 91.409,238.000 91.176 C 238.000 90.943,238.148 90.844,238.328 90.956 C 238.803 91.249,241.154 89.783,243.229 87.900 C 243.653 87.515,244.180 87.200,244.400 87.200 C 244.620 87.200,244.800 86.852,244.800 86.427 C 244.800 86.002,245.160 85.540,245.600 85.400 C 246.040 85.260,246.400 84.928,246.400 84.661 C 246.400 84.395,246.760 83.917,247.200 83.600 C 247.640 83.283,248.000 82.703,248.000 82.312 C 248.000 81.920,248.180 81.600,248.400 81.600 C 248.620 81.600,248.800 81.240,248.800 80.800 C 248.800 80.360,248.980 80.000,249.200 80.000 C 249.420 80.000,249.600 79.640,249.600 79.200 C 249.600 78.760,249.780 78.400,250.000 78.400 C 250.220 78.400,250.400 77.871,250.400 77.224 C 250.400 76.577,250.580 75.936,250.800 75.800 C 251.020 75.664,251.200 74.753,251.200 73.776 C 251.200 72.799,251.363 72.000,251.563 72.000 C 252.015 72.000,251.986 66.438,251.532 66.158 C 251.349 66.045,251.200 65.189,251.200 64.256 C 251.200 63.323,251.051 62.389,250.870 62.180 C 250.688 61.971,250.299 61.035,250.006 60.100 C 249.712 59.165,249.321 58.400,249.136 58.400 C 248.951 58.400,248.800 58.055,248.800 57.633 C 248.800 57.212,248.634 56.807,248.430 56.733 C 248.227 56.660,248.002 56.332,247.930 56.004 C 247.859 55.676,247.337 54.956,246.771 54.404 C 246.205 53.852,245.419 52.905,245.025 52.300 C 244.631 51.695,244.131 51.200,243.914 51.200 C 243.698 51.200,243.029 50.673,242.427 50.029 C 241.077 48.584,237.440 46.400,236.382 46.400 C 235.952 46.400,235.600 46.220,235.600 46.000 C 235.600 45.780,235.071 45.600,234.424 45.600 C 233.777 45.600,233.147 45.438,233.024 45.239 C 232.717 44.743,221.959 44.711,221.132 45.205 M81.000 100.800 C 80.864 101.020,80.043 101.200,79.176 101.200 C 78.309 101.200,77.600 101.380,77.600 101.600 C 77.600 101.820,77.150 102.000,76.600 102.000 C 76.050 102.000,75.600 102.180,75.600 102.400 C 75.600 102.620,75.240 102.800,74.800 102.800 C 74.360 102.800,74.000 102.980,74.000 103.200 C 74.000 103.420,73.640 103.600,73.200 103.600 C 72.760 103.600,72.400 103.750,72.400 103.932 C 72.400 104.115,71.908 104.520,71.307 104.832 C 70.706 105.145,69.689 105.895,69.048 106.500 C 68.406 107.105,67.717 107.600,67.517 107.600 C 67.317 107.600,67.281 107.808,67.438 108.062 C 67.607 108.336,67.549 108.415,67.294 108.258 C 67.058 108.112,66.625 108.244,66.332 108.552 C 65.148 109.796,64.400 110.832,64.400 111.228 C 64.400 111.459,64.220 111.536,64.000 111.400 C 63.780 111.264,63.600 111.534,63.600 112.000 C 63.600 112.466,63.420 112.736,63.200 112.600 C 62.980 112.464,62.800 112.633,62.800 112.976 C 62.800 113.319,62.609 113.600,62.376 113.600 C 62.143 113.600,62.055 113.765,62.180 113.968 C 62.305 114.170,62.136 114.607,61.804 114.939 C 61.472 115.271,61.200 115.738,61.200 115.977 C 61.200 116.216,61.042 116.723,60.849 117.105 C 60.265 118.261,59.600 120.604,59.600 121.505 C 59.600 121.971,59.455 122.442,59.278 122.552 C 58.843 122.821,59.045 131.417,59.530 133.300 C 59.742 134.125,59.855 134.800,59.782 134.800 C 59.708 134.800,59.898 135.282,60.203 135.871 C 60.509 136.461,60.668 137.091,60.556 137.271 C 60.444 137.452,60.543 137.600,60.776 137.600 C 61.009 137.600,61.200 137.938,61.200 138.351 C 61.200 138.764,61.468 139.324,61.796 139.596 C 62.123 139.868,62.293 140.250,62.172 140.445 C 62.051 140.640,62.131 140.800,62.349 140.800 C 62.568 140.800,62.862 141.166,63.004 141.613 C 63.146 142.060,63.653 142.825,64.131 143.313 C 64.609 143.801,65.450 144.874,66.000 145.698 C 66.550 146.521,67.180 147.196,67.400 147.198 C 67.620 147.200,68.422 147.733,69.181 148.382 C 70.058 149.132,70.720 149.432,70.995 149.204 C 71.265 148.980,72.552 149.359,74.414 150.210 C 76.056 150.960,79.020 151.955,81.000 152.421 C 82.980 152.887,84.744 153.523,84.920 153.834 C 85.285 154.480,87.427 154.603,87.800 154.000 C 87.936 153.780,89.016 153.600,90.200 153.600 C 91.384 153.600,92.464 153.420,92.600 153.200 C 92.736 152.980,93.366 152.800,94.000 152.800 C 94.634 152.800,95.264 152.620,95.400 152.400 C 95.536 152.180,95.997 152.000,96.424 152.000 C 96.851 152.000,97.201 151.865,97.203 151.700 C 97.207 151.341,99.144 150.400,99.880 150.400 C 100.166 150.400,100.400 150.250,100.400 150.068 C 100.400 149.885,100.895 149.480,101.499 149.168 C 103.702 148.030,109.600 141.362,109.600 140.009 C 109.600 139.784,109.780 139.600,110.000 139.600 C 110.220 139.600,110.400 139.240,110.400 138.800 C 110.400 138.360,110.580 138.000,110.800 138.000 C 111.020 138.000,111.200 137.550,111.200 137.000 C 111.200 136.450,111.380 136.000,111.600 136.000 C 111.820 136.000,112.000 135.370,112.000 134.600 C 112.000 133.830,112.163 133.200,112.362 133.200 C 112.883 133.200,112.936 121.331,112.416 121.010 C 112.187 120.868,112.000 120.223,112.000 119.576 C 112.000 118.929,111.820 118.400,111.600 118.400 C 111.380 118.400,111.200 117.860,111.200 117.200 C 111.200 116.540,111.020 116.000,110.800 116.000 C 110.580 116.000,110.400 115.640,110.400 115.200 C 110.400 114.760,110.220 114.400,110.000 114.400 C 109.780 114.400,109.600 114.029,109.600 113.576 C 109.600 113.123,109.420 112.864,109.200 113.000 C 108.980 113.136,108.800 112.967,108.800 112.624 C 108.800 112.281,108.620 112.000,108.400 112.000 C 108.180 112.000,108.000 111.758,108.000 111.463 C 108.000 110.771,103.359 106.000,102.686 106.000 C 102.406 106.000,101.917 105.640,101.600 105.200 C 101.283 104.760,100.703 104.400,100.312 104.400 C 99.920 104.400,99.599 104.265,99.597 104.100 C 99.593 103.741,97.656 102.800,96.920 102.800 C 96.634 102.800,96.400 102.620,96.400 102.400 C 96.400 102.180,96.051 102.000,95.624 102.000 C 95.197 102.000,94.736 101.820,94.600 101.600 C 94.464 101.380,93.744 101.200,93.000 101.200 C 92.256 101.200,91.536 101.020,91.400 100.800 C 91.257 100.568,89.070 100.400,86.200 100.400 C 83.330 100.400,81.143 100.568,81.000 100.800 " stroke="none" fill="#ccdbdb" fill-rule="evenodd"></path><path id="path2" d="M318.207 31.303 C 318.067 32.016,317.755 33.590,317.514 34.800 C 317.273 36.010,316.474 38.330,315.738 39.956 C 314.186 43.385,314.104 44.000,315.200 44.000 C 315.640 44.000,316.000 44.180,316.000 44.400 C 316.000 44.620,316.360 44.800,316.800 44.800 C 317.240 44.800,317.600 44.980,317.600 45.200 C 317.600 45.420,317.881 45.600,318.224 45.600 C 318.567 45.600,318.736 45.780,318.600 46.000 C 318.464 46.220,318.637 46.400,318.985 46.400 C 320.520 46.400,326.032 53.497,326.182 55.667 C 326.192 55.813,326.335 56.068,326.500 56.233 C 326.665 56.398,326.800 56.917,326.800 57.387 C 326.800 57.856,326.965 58.411,327.167 58.620 C 327.369 58.829,327.583 59.720,327.642 60.600 C 327.701 61.480,327.885 62.386,328.052 62.613 C 328.218 62.841,328.398 63.876,328.452 64.913 C 328.506 65.951,328.696 66.800,328.875 66.800 C 329.054 66.800,329.200 67.880,329.200 69.200 C 329.200 70.533,329.378 71.600,329.600 71.600 C 329.821 71.600,330.000 72.644,330.000 73.933 C 330.000 75.217,330.125 76.392,330.278 76.545 C 330.640 76.907,330.744 77.667,330.844 80.700 C 330.889 82.075,331.078 83.200,331.263 83.200 C 331.448 83.200,331.600 84.629,331.600 86.376 C 331.600 88.123,331.780 89.664,332.000 89.800 C 332.220 89.936,332.400 91.621,332.400 93.544 C 332.400 95.467,332.567 97.211,332.772 97.420 C 333.140 97.796,333.415 100.897,333.833 109.400 C 333.952 111.820,334.218 113.971,334.425 114.180 C 334.631 114.389,334.800 116.504,334.800 118.880 C 334.800 121.493,334.958 123.200,335.200 123.200 C 335.447 123.200,335.600 125.267,335.600 128.600 C 335.600 131.933,335.753 134.000,336.000 134.000 C 336.248 134.000,336.400 136.125,336.400 139.576 C 336.400 142.863,336.564 145.254,336.800 145.400 C 337.038 145.547,337.200 148.063,337.200 151.600 C 337.200 155.137,337.362 157.653,337.600 157.800 C 337.839 157.947,338.000 160.530,338.000 164.200 C 338.000 167.870,337.839 170.453,337.600 170.600 C 337.380 170.736,337.200 171.285,337.200 171.819 C 337.200 174.593,329.313 178.298,327.380 176.433 C 327.171 176.232,326.640 176.007,326.200 175.933 C 325.760 175.860,325.310 175.710,325.200 175.600 C 325.090 175.490,323.879 174.841,322.508 174.158 C 321.138 173.476,320.133 172.801,320.275 172.658 C 320.417 172.516,320.233 172.400,319.867 172.400 C 319.500 172.400,319.200 172.250,319.200 172.068 C 319.200 171.885,318.705 171.480,318.100 171.168 C 317.495 170.855,316.651 170.285,316.225 169.900 C 315.798 169.515,315.296 169.200,315.108 169.200 C 314.920 169.200,314.380 168.840,313.908 168.400 C 313.436 167.960,312.813 167.600,312.525 167.600 C 312.236 167.600,312.000 167.450,312.000 167.268 C 312.000 167.085,311.505 166.680,310.900 166.368 C 310.295 166.055,309.560 165.573,309.268 165.296 C 308.975 165.019,308.525 164.913,308.268 165.060 C 308.010 165.208,307.940 165.174,308.111 164.986 C 308.282 164.798,307.292 163.913,305.911 163.020 C 304.530 162.126,302.500 160.771,301.400 160.008 C 300.300 159.244,299.133 158.580,298.807 158.532 C 298.481 158.483,298.151 158.254,298.074 158.022 C 297.997 157.790,297.668 157.600,297.343 157.600 C 297.018 157.600,296.864 157.420,297.000 157.200 C 297.136 156.980,296.877 156.800,296.424 156.800 C 295.971 156.800,295.600 156.650,295.600 156.468 C 295.600 156.285,295.108 155.880,294.506 155.568 C 293.450 155.020,292.913 154.630,291.079 153.077 C 290.609 152.680,289.636 152.075,288.916 151.733 C 288.196 151.392,287.706 150.952,287.827 150.756 C 287.948 150.560,287.716 150.400,287.312 150.400 C 286.907 150.400,286.317 150.040,286.000 149.600 C 285.683 149.160,285.183 148.800,284.890 148.800 C 284.597 148.800,283.781 148.261,283.078 147.602 C 282.375 146.943,281.575 146.403,281.300 146.402 C 281.025 146.401,280.800 146.241,280.800 146.046 C 280.800 145.851,280.195 145.404,279.455 145.053 C 278.715 144.702,277.883 144.141,277.606 143.807 C 277.329 143.473,276.854 143.200,276.551 143.200 C 276.248 143.200,276.000 143.032,276.000 142.827 C 276.000 142.622,275.661 142.346,275.247 142.215 C 274.832 142.083,273.934 141.441,273.250 140.788 C 272.567 140.135,271.818 139.600,271.587 139.600 C 271.356 139.600,270.780 139.240,270.308 138.800 C 269.836 138.360,269.202 138.000,268.901 138.000 C 268.599 138.000,268.464 137.820,268.600 137.600 C 268.736 137.380,268.606 137.200,268.312 137.200 C 268.017 137.200,267.517 136.840,267.200 136.400 C 266.883 135.960,266.343 135.600,266.000 135.600 C 265.657 135.600,265.117 135.240,264.800 134.800 C 264.483 134.360,263.983 134.000,263.688 134.000 C 263.394 134.000,263.264 133.820,263.400 133.600 C 263.536 133.380,263.368 133.200,263.027 133.200 C 262.685 133.200,261.940 132.795,261.371 132.300 C 260.802 131.805,260.251 131.454,260.147 131.520 C 260.043 131.586,259.445 131.091,258.818 130.420 C 258.192 129.749,257.481 129.200,257.240 129.200 C 256.998 129.200,256.800 129.020,256.800 128.800 C 256.800 128.580,256.595 128.400,256.344 128.400 C 256.093 128.400,255.658 128.085,255.376 127.700 C 255.095 127.315,254.711 127.000,254.522 127.000 C 254.334 127.000,253.915 126.778,253.590 126.506 C 251.597 124.838,250.440 124.000,250.131 124.000 C 249.936 124.000,249.517 123.640,249.200 123.200 C 248.883 122.760,248.383 122.400,248.088 122.400 C 247.785 122.400,247.677 122.199,247.838 121.938 C 248.005 121.668,247.949 121.584,247.702 121.737 C 247.471 121.880,246.424 121.188,245.377 120.199 C 244.330 119.209,243.333 118.400,243.162 118.400 C 242.992 118.400,241.831 117.430,240.583 116.243 C 239.334 115.057,237.253 113.077,235.957 111.843 C 234.660 110.610,233.600 109.704,233.600 109.831 C 233.600 109.958,233.150 109.527,232.600 108.873 C 232.050 108.219,231.600 107.525,231.600 107.331 C 231.600 107.136,231.240 106.717,230.800 106.400 C 230.360 106.083,230.000 105.503,230.000 105.112 C 230.000 104.720,229.820 104.400,229.600 104.400 C 229.380 104.400,229.200 103.781,229.200 103.024 C 229.200 102.267,229.020 101.536,228.800 101.400 C 228.580 101.264,228.400 100.523,228.400 99.753 C 228.400 98.983,228.547 98.444,228.726 98.555 C 228.906 98.665,229.096 97.911,229.148 96.878 C 229.200 95.845,229.413 94.940,229.621 94.867 C 229.830 94.793,230.000 94.388,230.000 93.967 C 230.000 93.268,229.681 93.200,226.419 93.200 C 224.449 93.200,222.424 93.036,221.919 92.836 C 220.387 92.230,216.360 91.102,216.278 91.256 C 216.235 91.335,215.975 91.803,215.700 92.295 C 215.425 92.787,215.200 94.092,215.200 95.195 C 215.200 96.298,215.020 97.200,214.800 97.200 C 214.571 97.200,214.400 98.400,214.400 100.000 C 214.400 101.600,214.571 102.800,214.800 102.800 C 215.020 102.800,215.200 103.790,215.200 105.000 C 215.200 106.210,215.380 107.200,215.600 107.200 C 215.820 107.200,216.000 107.740,216.000 108.400 C 216.000 109.060,216.180 109.600,216.400 109.600 C 216.620 109.600,216.800 109.960,216.800 110.400 C 216.800 110.840,216.980 111.200,217.200 111.200 C 217.420 111.200,217.600 111.560,217.600 112.000 C 217.600 112.440,217.780 112.800,218.000 112.800 C 218.220 112.800,218.400 113.120,218.400 113.512 C 218.400 113.903,218.760 114.483,219.200 114.800 C 219.640 115.117,220.000 115.707,220.000 116.112 C 220.000 116.516,220.180 116.736,220.400 116.600 C 220.620 116.464,220.800 116.546,220.800 116.782 C 220.800 117.375,228.582 125.200,229.171 125.200 C 229.433 125.200,229.536 125.380,229.400 125.600 C 229.264 125.820,229.534 126.000,230.000 126.000 C 230.466 126.000,230.736 126.180,230.600 126.400 C 230.464 126.620,230.558 126.800,230.808 126.800 C 231.058 126.800,231.954 127.520,232.800 128.400 C 233.646 129.280,234.505 130.000,234.709 130.000 C 234.914 130.000,235.646 130.540,236.337 131.200 C 237.028 131.860,237.785 132.400,238.020 132.400 C 238.255 132.400,238.336 132.580,238.200 132.800 C 238.064 133.020,238.251 133.200,238.616 133.200 C 238.981 133.200,239.783 133.740,240.400 134.400 C 241.017 135.060,241.653 135.600,241.814 135.600 C 241.974 135.600,242.397 135.924,242.753 136.321 C 243.109 136.717,244.075 137.452,244.900 137.953 C 245.725 138.455,246.400 138.992,246.400 139.146 C 246.400 139.454,248.919 141.030,249.130 140.855 C 249.202 140.796,249.583 141.119,249.977 141.574 C 250.371 142.028,250.871 142.400,251.088 142.400 C 251.304 142.400,252.046 142.940,252.737 143.600 C 253.428 144.260,254.129 144.800,254.296 144.801 C 254.463 144.801,255.230 145.341,256.000 146.000 C 256.770 146.659,257.585 147.199,257.812 147.199 C 258.038 147.200,258.483 147.560,258.800 148.000 C 259.117 148.440,259.562 148.800,259.790 148.800 C 260.017 148.800,260.712 149.340,261.335 150.000 C 261.958 150.660,262.683 151.200,262.946 151.200 C 263.208 151.200,263.683 151.560,264.000 152.000 C 264.317 152.440,264.817 152.800,265.110 152.800 C 265.403 152.800,266.219 153.339,266.922 153.998 C 267.625 154.657,268.343 155.197,268.517 155.198 C 268.691 155.199,269.220 155.560,269.692 156.000 C 270.164 156.440,270.787 156.800,271.075 156.800 C 271.364 156.800,271.600 156.991,271.600 157.224 C 271.600 157.457,271.780 157.536,272.000 157.400 C 272.220 157.264,272.400 157.331,272.400 157.549 C 272.400 157.768,272.766 158.062,273.213 158.204 C 273.660 158.346,274.462 158.898,274.995 159.431 C 275.528 159.964,276.152 160.400,276.382 160.400 C 276.612 160.400,276.800 160.558,276.800 160.751 C 276.800 160.945,277.340 161.327,278.000 161.600 C 278.660 161.873,279.200 162.255,279.200 162.449 C 279.200 162.642,279.481 162.800,279.824 162.800 C 280.167 162.800,280.336 162.980,280.200 163.200 C 280.064 163.420,280.284 163.600,280.688 163.600 C 281.093 163.600,281.683 163.960,282.000 164.400 C 282.317 164.840,282.857 165.200,283.200 165.200 C 283.543 165.200,284.083 165.560,284.400 166.000 C 284.717 166.440,285.282 166.800,285.655 166.800 C 286.028 166.800,286.393 166.945,286.467 167.123 C 286.620 167.495,290.544 170.226,290.710 170.077 C 290.771 170.023,291.401 170.522,292.110 171.187 C 292.820 171.852,293.543 172.397,293.717 172.398 C 293.891 172.399,294.392 172.734,294.830 173.142 C 295.268 173.550,296.339 174.225,297.209 174.642 C 298.079 175.059,298.793 175.535,298.795 175.700 C 298.798 175.865,299.025 176.000,299.300 176.001 C 299.575 176.001,300.430 176.541,301.200 177.200 C 301.970 177.859,302.825 178.399,303.100 178.399 C 303.375 178.400,303.600 178.580,303.600 178.800 C 303.600 179.020,303.836 179.200,304.125 179.200 C 304.413 179.200,304.998 179.515,305.425 179.900 C 305.851 180.285,306.695 180.855,307.300 181.168 C 307.905 181.480,308.400 181.885,308.400 182.068 C 308.400 182.250,308.670 182.400,309.000 182.400 C 309.330 182.400,309.600 182.580,309.600 182.800 C 309.600 183.020,309.870 183.200,310.200 183.200 C 310.530 183.200,310.800 183.380,310.800 183.600 C 310.800 183.820,311.030 184.000,311.312 184.000 C 311.593 184.000,312.083 184.360,312.400 184.800 C 312.717 185.240,313.214 185.600,313.505 185.600 C 313.796 185.600,314.420 185.960,314.892 186.400 C 315.364 186.840,315.987 187.200,316.275 187.200 C 316.564 187.200,316.800 187.391,316.800 187.624 C 316.800 187.857,316.965 187.945,317.168 187.820 C 317.370 187.695,317.775 187.825,318.068 188.108 C 318.360 188.392,319.410 188.876,320.400 189.184 C 321.390 189.492,322.380 189.853,322.600 189.987 C 322.820 190.121,323.540 190.286,324.200 190.354 C 324.860 190.422,325.580 190.608,325.800 190.766 C 326.020 190.925,328.090 191.043,330.400 191.027 C 334.934 190.998,335.600 191.247,335.600 192.971 C 335.600 193.537,335.780 194.000,336.000 194.000 C 336.220 194.000,336.400 194.540,336.400 195.200 C 336.400 195.860,336.580 196.400,336.800 196.400 C 337.020 196.400,337.200 197.120,337.200 198.000 C 337.200 198.880,337.380 199.600,337.600 199.600 C 337.820 199.600,338.000 200.140,338.000 200.800 C 338.000 201.460,338.180 202.000,338.400 202.000 C 338.620 202.000,338.800 202.709,338.800 203.576 C 338.800 204.443,338.980 205.264,339.200 205.400 C 339.420 205.536,339.600 206.357,339.600 207.224 C 339.600 208.091,339.780 208.800,340.000 208.800 C 340.220 208.800,340.400 209.599,340.400 210.576 C 340.400 211.553,340.580 212.464,340.800 212.600 C 341.020 212.736,341.200 213.481,341.200 214.256 C 341.200 215.030,341.469 217.765,341.798 220.332 C 342.272 224.028,342.870 234.657,342.792 238.000 C 342.619 245.459,342.322 251.285,341.975 254.000 C 341.737 255.870,341.440 258.615,341.317 260.100 C 341.194 261.585,340.937 262.800,340.746 262.800 C 340.556 262.800,340.400 263.700,340.400 264.800 C 340.400 265.900,340.220 266.800,340.000 266.800 C 339.780 266.800,339.600 267.700,339.600 268.800 C 339.600 269.900,339.420 270.800,339.200 270.800 C 338.980 270.800,338.800 271.520,338.800 272.400 C 338.800 273.280,338.620 274.000,338.400 274.000 C 338.180 274.000,338.000 274.540,338.000 275.200 C 338.000 275.860,337.820 276.400,337.600 276.400 C 337.380 276.400,337.200 277.030,337.200 277.800 C 337.200 278.570,337.020 279.200,336.800 279.200 C 336.580 279.200,336.400 279.729,336.400 280.376 C 336.400 281.023,336.220 281.664,336.000 281.800 C 335.780 281.936,335.600 282.487,335.600 283.024 C 335.600 283.561,335.420 284.000,335.200 284.000 C 334.980 284.000,334.800 284.540,334.800 285.200 C 334.800 285.860,334.620 286.400,334.400 286.400 C 334.180 286.400,334.000 286.861,334.000 287.424 C 334.000 288.004,333.827 288.340,333.600 288.200 C 333.367 288.056,333.200 288.463,333.200 289.176 C 333.200 289.849,333.020 290.400,332.800 290.400 C 332.580 290.400,332.400 290.749,332.400 291.176 C 332.400 291.603,332.220 292.064,332.000 292.200 C 331.780 292.336,331.600 292.797,331.600 293.224 C 331.600 293.651,331.420 294.000,331.200 294.000 C 330.980 294.000,330.800 294.360,330.800 294.800 C 330.800 295.240,330.620 295.600,330.400 295.600 C 330.180 295.600,330.000 296.035,330.000 296.567 C 330.000 297.098,329.865 297.593,329.700 297.667 C 329.268 297.859,327.600 301.172,327.600 301.838 C 327.600 302.147,327.420 302.400,327.200 302.400 C 326.980 302.400,326.800 302.626,326.800 302.903 C 326.800 303.180,326.350 304.252,325.800 305.285 C 325.250 306.318,324.800 307.402,324.800 307.693 C 324.800 307.985,324.440 308.483,324.000 308.800 C 323.560 309.117,323.200 309.607,323.200 309.888 C 323.200 310.170,323.020 310.400,322.800 310.400 C 322.580 310.400,322.400 310.760,322.400 311.200 C 322.400 311.640,322.250 312.000,322.068 312.000 C 321.885 312.000,321.480 312.495,321.168 313.100 C 320.855 313.705,320.285 314.549,319.900 314.975 C 319.515 315.402,319.200 315.987,319.200 316.275 C 319.200 316.564,319.050 316.800,318.868 316.800 C 318.685 316.800,318.281 317.295,317.970 317.900 C 317.660 318.505,317.077 319.301,316.676 319.670 C 316.276 320.038,316.004 320.440,316.074 320.563 C 316.201 320.789,315.023 322.504,314.100 323.437 C 313.825 323.715,313.600 324.046,313.600 324.171 C 313.600 324.296,312.880 325.141,312.000 326.048 C 311.120 326.955,310.400 327.835,310.400 328.004 C 310.400 328.172,309.590 329.132,308.600 330.136 C 307.610 331.141,306.800 332.251,306.800 332.605 C 306.800 332.958,306.620 333.136,306.400 333.000 C 306.180 332.864,306.000 332.949,306.000 333.188 C 306.000 333.670,297.209 342.415,295.133 344.000 C 294.412 344.550,293.143 345.675,292.312 346.500 C 291.481 347.325,290.665 348.000,290.498 348.000 C 290.332 348.000,289.431 348.720,288.497 349.600 C 287.563 350.480,286.518 351.200,286.176 351.200 C 285.833 351.200,285.664 351.380,285.800 351.600 C 285.936 351.820,285.767 352.000,285.424 352.000 C 285.081 352.000,284.800 352.150,284.800 352.332 C 284.800 352.515,284.305 352.919,283.700 353.230 C 283.095 353.540,282.319 354.100,281.975 354.472 C 281.631 354.845,281.091 355.206,280.775 355.275 C 280.459 355.344,279.930 355.670,279.599 356.000 C 278.634 356.964,276.658 358.264,275.692 358.571 C 275.202 358.726,274.800 359.022,274.800 359.227 C 274.800 359.432,274.440 359.600,274.000 359.600 C 273.560 359.600,273.200 359.780,273.200 360.000 C 273.200 360.220,272.964 360.400,272.675 360.400 C 272.387 360.400,271.764 360.760,271.292 361.200 C 270.820 361.640,270.156 362.000,269.817 362.000 C 269.478 362.000,269.200 362.180,269.200 362.400 C 269.200 362.620,268.840 362.800,268.400 362.800 C 267.960 362.800,267.600 362.980,267.600 363.200 C 267.600 363.420,267.240 363.600,266.800 363.600 C 266.360 363.600,266.000 363.780,266.000 364.000 C 266.000 364.220,265.640 364.400,265.200 364.400 C 264.760 364.400,264.400 364.580,264.400 364.800 C 264.400 365.020,264.029 365.200,263.576 365.200 C 263.123 365.200,262.864 365.380,263.000 365.600 C 263.136 365.820,262.984 366.000,262.661 366.000 C 261.978 366.000,258.662 367.660,258.467 368.100 C 258.393 368.265,257.994 368.400,257.579 368.400 C 257.164 368.400,256.183 368.760,255.400 369.200 C 254.617 369.640,253.711 370.000,253.388 370.000 C 253.065 370.000,252.800 370.180,252.800 370.400 C 252.800 370.620,252.361 370.800,251.824 370.800 C 251.287 370.800,250.736 370.980,250.600 371.200 C 250.464 371.420,249.924 371.600,249.400 371.600 C 248.876 371.600,248.336 371.780,248.200 372.000 C 248.064 372.220,247.503 372.400,246.953 372.400 C 246.388 372.400,246.060 372.574,246.200 372.800 C 246.338 373.023,246.031 373.200,245.504 373.200 C 244.985 373.200,244.386 373.374,244.173 373.587 C 243.961 373.799,243.205 374.017,242.493 374.072 C 241.782 374.126,241.200 374.312,241.200 374.485 C 241.200 374.658,240.660 374.800,240.000 374.800 C 239.340 374.800,238.800 374.935,238.800 375.100 C 238.800 375.265,238.305 375.418,237.700 375.440 C 237.095 375.462,235.700 375.703,234.600 375.974 C 233.500 376.246,231.924 376.561,231.097 376.676 C 230.271 376.791,229.495 377.045,229.374 377.242 C 229.252 377.439,228.353 377.600,227.376 377.600 C 226.399 377.600,225.600 377.780,225.600 378.000 C 225.600 378.222,224.533 378.400,223.200 378.400 C 221.867 378.400,220.800 378.578,220.800 378.800 C 220.800 379.030,219.560 379.200,217.880 379.200 C 216.274 379.200,214.786 379.374,214.574 379.586 C 214.361 379.799,211.114 379.992,207.291 380.019 C 203.225 380.047,200.487 380.217,200.621 380.433 C 200.745 380.635,200.466 380.800,200.000 380.800 C 199.534 380.800,199.255 380.635,199.379 380.433 C 199.513 380.217,196.775 380.047,192.709 380.019 C 188.886 379.992,185.639 379.799,185.426 379.586 C 185.214 379.374,183.726 379.200,182.120 379.200 C 180.440 379.200,179.200 379.030,179.200 378.800 C 179.200 378.578,178.133 378.400,176.800 378.400 C 175.480 378.400,174.400 378.255,174.400 378.078 C 174.400 377.901,173.648 377.712,172.729 377.658 C 171.810 377.604,170.865 377.439,170.629 377.291 C 170.393 377.144,169.840 376.977,169.400 376.920 C 168.960 376.863,167.970 376.648,167.200 376.442 C 166.430 376.236,165.125 375.889,164.300 375.671 C 163.475 375.453,162.440 375.369,162.000 375.484 C 161.553 375.601,161.200 375.496,161.200 375.247 C 161.200 375.001,160.660 374.800,160.000 374.800 C 159.340 374.800,158.800 374.659,158.800 374.487 C 158.800 374.315,158.340 374.136,157.779 374.090 C 157.217 374.043,156.419 373.824,156.005 373.603 C 155.591 373.381,154.870 373.200,154.403 373.200 C 153.935 373.200,153.664 373.020,153.800 372.800 C 153.940 372.574,153.612 372.400,153.047 372.400 C 152.497 372.400,151.936 372.220,151.800 372.000 C 151.664 371.780,151.201 371.600,150.771 371.600 C 150.341 371.600,149.677 371.441,149.295 371.247 C 148.913 371.052,148.150 370.718,147.600 370.503 C 147.050 370.289,145.818 369.728,144.862 369.257 C 143.906 368.786,142.796 368.400,142.396 368.400 C 141.995 368.400,141.607 368.265,141.533 368.100 C 141.338 367.660,138.022 366.000,137.339 366.000 C 137.016 366.000,136.864 365.820,137.000 365.600 C 137.136 365.380,136.877 365.200,136.424 365.200 C 135.971 365.200,135.600 365.020,135.600 364.800 C 135.600 364.580,135.240 364.400,134.800 364.400 C 134.360 364.400,134.000 364.220,134.000 364.000 C 134.000 363.780,133.640 363.600,133.200 363.600 C 132.760 363.600,132.400 363.420,132.400 363.200 C 132.400 362.980,132.062 362.800,131.649 362.800 C 131.236 362.800,130.670 362.526,130.392 362.190 C 130.114 361.855,129.802 361.664,129.700 361.766 C 129.598 361.868,129.140 361.603,128.682 361.176 C 128.224 360.749,127.613 360.400,127.325 360.400 C 127.036 360.400,126.800 360.220,126.800 360.000 C 126.800 359.780,126.440 359.600,126.000 359.600 C 125.560 359.600,125.200 359.409,125.200 359.176 C 125.200 358.943,125.020 358.864,124.800 359.000 C 124.580 359.136,124.400 359.057,124.400 358.824 C 124.400 358.591,124.212 358.400,123.983 358.400 C 123.754 358.400,123.180 358.040,122.708 357.600 C 122.236 357.160,121.613 356.800,121.325 356.800 C 121.036 356.800,120.800 356.620,120.800 356.400 C 120.800 356.180,120.519 356.000,120.176 356.000 C 119.833 356.000,119.664 355.820,119.800 355.600 C 119.936 355.380,119.716 355.200,119.312 355.200 C 118.907 355.200,118.317 354.840,118.000 354.400 C 117.683 353.960,117.175 353.600,116.872 353.600 C 116.569 353.600,115.817 353.060,115.200 352.400 C 114.583 351.740,113.882 351.200,113.640 351.200 C 113.399 351.200,112.437 350.480,111.503 349.600 C 110.569 348.720,109.676 348.000,109.519 348.000 C 109.362 348.000,108.280 347.055,107.114 345.900 C 104.877 343.684,103.200 342.273,103.200 342.608 C 103.200 342.718,101.130 340.739,98.600 338.209 C 96.070 335.679,94.000 333.416,94.000 333.181 C 94.000 332.945,93.820 332.864,93.600 333.000 C 93.379 333.137,93.200 332.849,93.200 332.357 C 93.200 331.867,93.081 331.586,92.935 331.731 C 92.790 331.877,92.243 331.367,91.721 330.598 C 91.199 329.829,90.610 329.200,90.413 329.200 C 90.215 329.200,89.944 328.854,89.810 328.430 C 89.675 328.007,88.853 326.927,87.983 326.030 C 87.112 325.133,86.399 324.264,86.398 324.100 C 86.397 323.935,85.857 323.225,85.198 322.522 C 84.539 321.819,84.000 321.030,84.000 320.769 C 84.000 320.507,83.684 320.003,83.297 319.647 C 82.911 319.291,82.340 318.505,82.030 317.900 C 81.719 317.295,81.315 316.800,81.132 316.800 C 80.950 316.800,80.800 316.564,80.800 316.275 C 80.800 315.987,80.485 315.402,80.100 314.975 C 79.715 314.549,79.145 313.705,78.832 313.100 C 78.520 312.495,78.115 312.000,77.932 312.000 C 77.750 312.000,77.600 311.640,77.600 311.200 C 77.600 310.760,77.420 310.400,77.200 310.400 C 76.980 310.400,76.800 310.170,76.800 309.888 C 76.800 309.607,76.440 309.117,76.000 308.800 C 75.560 308.483,75.200 308.014,75.200 307.759 C 75.200 307.503,74.030 304.939,72.600 302.060 C 71.170 299.181,70.000 296.550,70.000 296.213 C 70.000 295.876,69.820 295.600,69.600 295.600 C 69.380 295.600,69.200 295.255,69.200 294.833 C 69.200 294.412,69.012 294.004,68.782 293.927 C 68.552 293.851,68.334 293.386,68.297 292.894 C 68.260 292.402,68.088 292.000,67.915 292.000 C 67.742 292.000,67.600 291.640,67.600 291.200 C 67.600 290.760,67.420 290.400,67.200 290.400 C 66.980 290.400,66.800 289.961,66.800 289.424 C 66.800 288.887,66.620 288.336,66.400 288.200 C 66.180 288.064,66.000 287.603,66.000 287.176 C 66.000 286.749,65.820 286.400,65.600 286.400 C 65.380 286.400,65.200 285.860,65.200 285.200 C 65.200 284.540,65.020 284.000,64.800 284.000 C 64.580 284.000,64.400 283.460,64.400 282.800 C 64.400 282.140,64.220 281.600,64.000 281.600 C 63.780 281.600,63.600 281.161,63.600 280.624 C 63.600 280.087,63.420 279.536,63.200 279.400 C 62.980 279.264,62.800 278.533,62.800 277.776 C 62.800 277.019,62.620 276.400,62.400 276.400 C 62.180 276.400,62.000 275.860,62.000 275.200 C 62.000 274.540,61.820 274.000,61.600 274.000 C 61.380 274.000,61.200 273.280,61.200 272.400 C 61.200 271.520,61.020 270.800,60.800 270.800 C 60.580 270.800,60.400 270.001,60.400 269.024 C 60.400 268.047,60.220 267.136,60.000 267.000 C 59.780 266.864,59.600 265.863,59.600 264.776 C 59.600 263.689,59.420 262.800,59.200 262.800 C 58.980 262.800,58.800 262.001,58.800 261.024 C 58.800 260.047,58.617 259.134,58.393 258.996 C 58.170 258.858,58.094 258.571,58.226 258.359 C 58.357 258.146,58.257 256.375,58.003 254.423 C 57.422 249.956,57.209 231.639,57.669 225.800 C 57.860 223.380,58.086 220.441,58.172 219.269 C 58.258 218.097,58.435 217.032,58.564 216.902 C 58.694 216.773,58.800 215.696,58.800 214.510 C 58.800 213.323,58.947 212.444,59.126 212.555 C 59.306 212.665,59.496 211.911,59.548 210.878 C 59.600 209.845,59.813 208.940,60.021 208.867 C 60.230 208.793,60.400 207.838,60.400 206.743 C 60.400 205.518,60.554 204.848,60.800 205.000 C 61.041 205.149,61.200 204.612,61.200 203.647 C 61.200 202.767,61.380 201.936,61.600 201.800 C 61.820 201.664,62.000 200.923,62.000 200.153 C 62.000 199.321,62.162 198.853,62.400 199.000 C 62.638 199.147,62.800 198.671,62.800 197.824 C 62.800 197.041,62.980 196.400,63.200 196.400 C 63.420 196.400,63.600 195.860,63.600 195.200 C 63.600 194.540,63.780 194.000,64.000 194.000 C 64.220 194.000,64.400 193.460,64.400 192.800 C 64.400 192.140,64.580 191.600,64.800 191.600 C 65.020 191.600,65.200 191.049,65.200 190.376 C 65.200 189.663,65.367 189.256,65.600 189.400 C 65.826 189.540,66.000 189.212,66.000 188.647 C 66.000 188.097,66.180 187.536,66.400 187.400 C 66.620 187.264,66.800 186.818,66.800 186.410 C 66.800 186.001,66.978 185.607,67.197 185.533 C 67.415 185.460,67.634 184.905,67.684 184.300 C 67.734 183.695,67.915 183.200,68.087 183.200 C 68.259 183.200,68.400 182.840,68.400 182.400 C 68.400 181.960,68.580 181.600,68.800 181.600 C 69.020 181.600,69.200 181.240,69.200 180.800 C 69.200 180.360,69.380 180.000,69.600 180.000 C 69.820 180.000,70.000 179.640,70.000 179.200 C 70.000 178.760,70.180 178.400,70.400 178.400 C 70.620 178.400,70.800 178.149,70.800 177.843 C 70.800 177.537,71.790 175.381,73.000 173.053 C 74.210 170.725,75.200 168.586,75.200 168.298 C 75.200 168.011,75.560 167.517,76.000 167.200 C 76.440 166.883,76.800 166.303,76.800 165.912 C 76.800 165.520,76.980 165.200,77.200 165.200 C 77.420 165.200,77.600 164.880,77.600 164.488 C 77.600 164.097,77.960 163.517,78.400 163.200 C 78.840 162.883,79.200 162.303,79.200 161.912 C 79.200 161.520,79.380 161.200,79.600 161.200 C 79.820 161.200,80.000 160.919,80.000 160.576 C 80.000 160.207,80.188 160.069,80.462 160.238 C 80.738 160.409,80.815 160.349,80.654 160.088 C 80.506 159.848,80.846 159.190,81.411 158.626 C 81.975 158.062,82.293 157.594,82.118 157.587 C 81.943 157.580,82.087 157.355,82.439 157.087 C 84.815 155.274,84.598 153.218,82.028 153.206 C 80.370 153.199,78.699 152.699,75.000 151.105 C 70.715 149.259,70.374 149.263,69.206 151.174 C 68.659 152.068,68.074 152.800,67.906 152.800 C 67.738 152.800,67.600 153.120,67.600 153.512 C 67.600 153.903,67.240 154.483,66.800 154.800 C 66.360 155.117,66.000 155.682,66.000 156.055 C 66.000 156.428,65.833 156.793,65.630 156.867 C 65.426 156.940,65.201 157.270,65.130 157.600 C 65.058 157.930,64.716 158.470,64.370 158.800 C 64.023 159.130,63.484 159.985,63.172 160.700 C 62.860 161.415,62.469 162.000,62.302 162.000 C 62.136 162.000,62.000 162.345,62.000 162.767 C 62.000 163.188,61.865 163.593,61.700 163.667 C 61.354 163.820,58.717 168.800,58.982 168.800 C 59.078 168.800,58.627 169.808,57.979 171.041 C 57.330 172.273,56.800 173.623,56.800 174.041 C 56.800 174.458,56.665 174.801,56.500 174.803 C 56.141 174.807,55.200 176.744,55.200 177.480 C 55.200 177.766,55.020 178.000,54.800 178.000 C 54.580 178.000,54.400 178.355,54.400 178.788 C 54.400 179.221,54.040 180.217,53.600 181.000 C 53.160 181.783,52.800 182.768,52.800 183.189 C 52.800 183.609,52.620 184.064,52.400 184.200 C 52.180 184.336,52.000 184.887,52.000 185.424 C 52.000 185.961,51.820 186.400,51.600 186.400 C 51.380 186.400,51.200 186.940,51.200 187.600 C 51.200 188.260,51.020 188.800,50.800 188.800 C 50.580 188.800,50.400 189.340,50.400 190.000 C 50.400 190.660,50.220 191.200,50.000 191.200 C 49.780 191.200,49.600 191.740,49.600 192.400 C 49.600 193.060,49.420 193.600,49.200 193.600 C 48.980 193.600,48.800 194.230,48.800 195.000 C 48.800 195.770,48.620 196.400,48.400 196.400 C 48.180 196.400,48.000 197.120,48.000 198.000 C 48.000 198.880,47.820 199.600,47.600 199.600 C 47.380 199.600,47.200 200.320,47.200 201.200 C 47.200 202.080,47.020 202.800,46.800 202.800 C 46.580 202.800,46.400 203.610,46.400 204.600 C 46.400 205.590,46.220 206.400,46.000 206.400 C 45.780 206.400,45.600 207.264,45.600 208.320 C 45.600 209.376,45.436 210.411,45.235 210.620 C 44.880 210.990,44.668 212.607,44.160 218.800 C 44.025 220.450,43.755 222.101,43.560 222.468 C 42.773 223.954,43.588 258.912,44.431 259.780 C 44.634 259.989,44.800 261.193,44.800 262.456 C 44.800 263.719,44.980 264.864,45.200 265.000 C 45.420 265.136,45.600 266.126,45.600 267.200 C 45.600 268.274,45.761 269.252,45.958 269.374 C 46.155 269.495,46.429 270.361,46.567 271.297 C 47.186 275.481,47.305 276.000,47.642 276.000 C 47.839 276.000,48.000 276.619,48.000 277.376 C 48.000 278.133,48.180 278.864,48.400 279.000 C 48.620 279.136,48.800 279.856,48.800 280.600 C 48.800 281.344,48.980 282.064,49.200 282.200 C 49.420 282.336,49.600 282.977,49.600 283.624 C 49.600 284.271,49.780 284.800,50.000 284.800 C 50.220 284.800,50.400 285.340,50.400 286.000 C 50.400 286.660,50.580 287.200,50.800 287.200 C 51.020 287.200,51.200 287.639,51.200 288.176 C 51.200 288.713,51.380 289.264,51.600 289.400 C 51.820 289.536,52.000 290.087,52.000 290.624 C 52.000 291.161,52.180 291.600,52.400 291.600 C 52.620 291.600,52.800 292.039,52.800 292.576 C 52.800 293.113,52.980 293.664,53.200 293.800 C 53.420 293.936,53.600 294.397,53.600 294.824 C 53.600 295.251,53.780 295.600,54.000 295.600 C 54.220 295.600,54.400 296.039,54.400 296.576 C 54.400 297.113,54.580 297.664,54.800 297.800 C 55.020 297.936,55.200 298.397,55.200 298.824 C 55.200 299.251,55.380 299.600,55.600 299.600 C 55.820 299.600,56.000 299.960,56.000 300.400 C 56.000 300.840,56.180 301.200,56.400 301.200 C 56.620 301.200,56.800 301.560,56.800 302.000 C 56.800 302.440,56.980 302.800,57.200 302.800 C 57.420 302.800,57.600 303.096,57.600 303.457 C 57.600 304.119,61.066 311.629,61.543 312.000 C 61.684 312.110,61.859 312.470,61.930 312.800 C 62.002 313.130,62.227 313.460,62.430 313.533 C 62.634 313.607,62.800 313.997,62.800 314.400 C 62.800 314.803,62.966 315.193,63.170 315.267 C 63.373 315.340,63.598 315.670,63.670 316.000 C 63.741 316.330,63.899 316.690,64.019 316.800 C 64.661 317.386,66.000 319.598,66.000 320.073 C 66.000 320.376,66.360 320.883,66.800 321.200 C 67.240 321.517,67.600 321.924,67.600 322.105 C 67.600 322.467,69.011 324.530,70.100 325.760 C 70.485 326.195,70.800 326.747,70.800 326.987 C 70.800 327.227,71.160 327.683,71.600 328.000 C 72.040 328.317,72.400 328.815,72.400 329.106 C 72.400 329.398,72.837 330.073,73.371 330.607 C 73.905 331.141,74.664 332.123,75.057 332.789 C 75.451 333.455,75.924 334.000,76.110 334.000 C 76.295 334.000,76.336 334.180,76.200 334.400 C 76.064 334.620,76.105 334.800,76.290 334.800 C 76.476 334.800,76.962 335.366,77.370 336.057 C 77.779 336.749,79.006 338.189,80.097 339.257 C 81.188 340.326,81.990 341.200,81.878 341.200 C 81.766 341.200,84.778 344.350,88.572 348.200 C 92.366 352.050,95.653 355.200,95.877 355.200 C 96.101 355.200,96.760 355.775,97.342 356.477 C 97.924 357.180,98.400 357.602,98.400 357.416 C 98.400 357.230,98.715 357.429,99.100 357.858 C 99.485 358.287,100.430 359.071,101.200 359.600 C 101.970 360.129,102.891 360.886,103.247 361.281 C 103.603 361.676,104.108 362.000,104.371 362.000 C 104.633 362.000,104.719 362.208,104.562 362.462 C 104.390 362.739,104.452 362.815,104.715 362.652 C 104.957 362.503,105.789 363.015,106.564 363.791 C 107.339 364.566,108.076 365.200,108.202 365.200 C 108.759 365.200,112.369 367.897,112.132 368.135 C 111.986 368.281,112.223 368.400,112.658 368.400 C 113.093 368.400,113.836 368.760,114.308 369.200 C 114.780 369.640,115.326 370.000,115.521 370.000 C 115.716 370.000,116.202 370.360,116.600 370.800 C 116.998 371.240,117.566 371.600,117.862 371.600 C 118.158 371.600,118.400 371.780,118.400 372.000 C 118.400 372.220,118.760 372.400,119.200 372.400 C 119.640 372.400,120.000 372.548,120.000 372.728 C 120.000 372.908,121.485 373.755,123.300 374.609 C 125.115 375.463,126.690 376.260,126.800 376.381 C 127.223 376.845,130.505 378.400,131.061 378.400 C 131.384 378.400,131.536 378.580,131.400 378.800 C 131.260 379.027,131.596 379.200,132.176 379.200 C 132.739 379.200,133.200 379.380,133.200 379.600 C 133.200 379.820,133.560 380.000,134.000 380.000 C 134.440 380.000,134.800 380.180,134.800 380.400 C 134.800 380.620,135.160 380.800,135.600 380.800 C 136.040 380.800,136.400 380.980,136.400 381.200 C 136.400 381.420,136.760 381.600,137.200 381.600 C 137.640 381.600,138.000 381.780,138.000 382.000 C 138.000 382.220,138.540 382.400,139.200 382.400 C 139.860 382.400,140.400 382.580,140.400 382.800 C 140.400 383.020,140.760 383.200,141.200 383.200 C 141.640 383.200,142.000 383.380,142.000 383.600 C 142.000 383.820,142.135 383.979,142.300 383.953 C 143.291 383.796,144.410 384.060,144.200 384.400 C 144.064 384.620,144.315 384.800,144.758 384.800 C 145.200 384.800,146.066 385.002,146.681 385.250 C 147.297 385.497,148.205 385.857,148.700 386.050 C 149.195 386.242,150.005 386.582,150.500 386.804 C 150.995 387.026,151.895 387.246,152.500 387.291 C 153.105 387.337,153.600 387.515,153.600 387.687 C 153.600 387.859,154.140 388.000,154.800 388.000 C 155.460 388.000,156.000 388.142,156.000 388.315 C 156.000 388.488,156.573 388.673,157.273 388.727 C 157.974 388.780,158.739 388.974,158.973 389.158 C 159.389 389.484,159.870 389.617,163.600 390.440 C 166.129 390.998,167.053 391.145,169.911 391.448 C 171.293 391.594,172.518 391.868,172.635 392.057 C 172.752 392.245,174.017 392.400,175.447 392.400 C 177.079 392.400,177.955 392.549,177.800 392.800 C 177.642 393.055,178.804 393.200,181.000 393.200 C 183.196 393.200,184.358 393.345,184.200 393.600 C 184.037 393.864,189.404 394.000,200.000 394.000 C 210.596 394.000,215.963 393.864,215.800 393.600 C 215.642 393.345,216.804 393.200,219.000 393.200 C 221.196 393.200,222.358 393.055,222.200 392.800 C 222.045 392.549,222.921 392.400,224.553 392.400 C 225.983 392.400,227.251 392.242,227.370 392.049 C 227.549 391.759,230.482 391.316,233.200 391.167 C 233.530 391.149,234.250 390.977,234.800 390.785 C 235.350 390.593,236.340 390.357,237.000 390.260 C 237.660 390.163,239.010 389.798,240.000 389.448 C 240.990 389.098,242.295 388.809,242.900 388.806 C 243.505 388.803,244.000 388.620,244.000 388.400 C 244.000 388.180,244.619 388.000,245.376 388.000 C 246.133 388.000,246.864 387.820,247.000 387.600 C 247.136 387.380,247.687 387.200,248.224 387.200 C 248.761 387.200,249.200 387.020,249.200 386.800 C 249.200 386.580,249.729 386.400,250.376 386.400 C 251.023 386.400,251.664 386.220,251.800 386.000 C 251.936 385.780,252.487 385.600,253.024 385.600 C 253.561 385.600,254.000 385.420,254.000 385.200 C 254.000 384.980,254.461 384.800,255.024 384.800 C 255.604 384.800,255.940 384.627,255.800 384.400 C 255.656 384.167,256.063 384.000,256.776 384.000 C 257.449 384.000,258.000 383.820,258.000 383.600 C 258.000 383.380,258.360 383.200,258.800 383.200 C 259.240 383.200,259.600 383.020,259.600 382.800 C 259.600 382.580,260.140 382.400,260.800 382.400 C 261.460 382.400,262.000 382.220,262.000 382.000 C 262.000 381.780,262.360 381.600,262.800 381.600 C 263.240 381.600,263.600 381.420,263.600 381.200 C 263.600 380.980,263.960 380.800,264.400 380.800 C 264.840 380.800,265.200 380.620,265.200 380.400 C 265.200 380.180,265.560 380.000,266.000 380.000 C 266.440 380.000,266.800 379.820,266.800 379.600 C 266.800 379.380,267.261 379.200,267.824 379.200 C 268.404 379.200,268.740 379.027,268.600 378.800 C 268.459 378.572,268.804 378.400,269.400 378.400 C 269.996 378.400,270.341 378.228,270.200 378.000 C 270.064 377.780,270.228 377.600,270.564 377.600 C 270.901 377.600,271.856 377.211,272.688 376.737 C 273.520 376.262,275.460 375.241,277.000 374.467 C 278.540 373.694,279.860 372.913,279.933 372.731 C 280.007 372.549,280.412 372.400,280.833 372.400 C 281.255 372.400,281.600 372.220,281.600 372.000 C 281.600 371.780,281.799 371.600,282.042 371.600 C 282.285 371.600,283.021 371.149,283.676 370.597 C 284.332 370.046,285.060 369.714,285.296 369.859 C 285.549 370.016,285.607 369.935,285.438 369.662 C 285.269 369.388,285.407 369.200,285.776 369.200 C 286.119 369.200,286.400 369.020,286.400 368.800 C 286.400 368.580,286.771 368.400,287.224 368.400 C 287.677 368.400,287.954 368.249,287.840 368.065 C 287.726 367.880,288.310 367.348,289.137 366.883 C 289.965 366.418,290.975 365.669,291.383 365.219 C 291.791 364.768,292.326 364.400,292.574 364.400 C 292.821 364.400,293.283 364.040,293.600 363.600 C 293.917 363.160,294.425 362.800,294.728 362.800 C 295.031 362.800,295.783 362.260,296.400 361.600 C 297.017 360.940,297.674 360.396,297.860 360.391 C 298.047 360.386,298.920 359.755,299.800 358.989 C 300.680 358.223,301.921 357.192,302.558 356.698 C 303.194 356.204,307.098 352.380,311.233 348.200 C 320.770 338.559,321.215 338.088,322.388 336.400 C 322.924 335.630,323.550 334.868,323.781 334.706 C 324.043 334.522,324.050 334.408,323.800 334.400 C 323.550 334.392,323.557 334.278,323.819 334.094 C 324.050 333.932,324.671 333.170,325.200 332.400 C 325.729 331.630,326.486 330.709,326.881 330.353 C 327.276 329.997,327.600 329.478,327.600 329.200 C 327.600 328.922,327.916 328.403,328.303 328.047 C 328.689 327.691,329.260 326.905,329.570 326.300 C 329.881 325.695,330.285 325.200,330.468 325.200 C 330.650 325.200,330.800 324.930,330.800 324.600 C 330.800 324.270,330.959 324.000,331.154 324.000 C 331.349 324.000,331.813 323.359,332.185 322.576 C 332.556 321.793,333.117 321.053,333.430 320.933 C 333.744 320.813,334.000 320.446,334.000 320.119 C 334.000 319.608,335.312 317.410,335.981 316.800 C 336.101 316.690,336.259 316.330,336.330 316.000 C 336.402 315.670,336.627 315.340,336.830 315.267 C 337.034 315.193,337.200 314.803,337.200 314.400 C 337.200 313.997,337.366 313.607,337.570 313.533 C 337.773 313.460,337.998 313.130,338.070 312.800 C 338.141 312.470,338.310 312.110,338.445 312.000 C 338.579 311.890,339.534 310.000,340.567 307.800 C 341.599 305.600,342.614 303.487,342.822 303.105 C 343.030 302.723,343.200 302.138,343.200 301.805 C 343.200 301.472,343.380 301.200,343.600 301.200 C 343.820 301.200,344.000 300.840,344.000 300.400 C 344.000 299.960,344.180 299.600,344.400 299.600 C 344.620 299.600,344.800 299.251,344.800 298.824 C 344.800 298.397,344.980 297.936,345.200 297.800 C 345.420 297.664,345.600 297.113,345.600 296.576 C 345.600 296.039,345.780 295.600,346.000 295.600 C 346.220 295.600,346.400 295.251,346.400 294.824 C 346.400 294.397,346.580 293.936,346.800 293.800 C 347.020 293.664,347.200 293.113,347.200 292.576 C 347.200 292.039,347.380 291.600,347.600 291.600 C 347.820 291.600,348.000 291.161,348.000 290.624 C 348.000 290.087,348.180 289.536,348.400 289.400 C 348.620 289.264,348.800 288.713,348.800 288.176 C 348.800 287.639,348.980 287.200,349.200 287.200 C 349.420 287.200,349.600 286.660,349.600 286.000 C 349.600 285.340,349.780 284.800,350.000 284.800 C 350.220 284.800,350.400 284.271,350.400 283.624 C 350.400 282.977,350.580 282.336,350.800 282.200 C 351.020 282.064,351.200 281.333,351.200 280.576 C 351.200 279.819,351.380 279.200,351.600 279.200 C 351.820 279.200,352.000 278.491,352.000 277.624 C 352.000 276.757,352.180 275.936,352.400 275.800 C 352.620 275.664,352.800 275.034,352.800 274.400 C 352.800 273.766,352.980 273.136,353.200 273.000 C 353.420 272.864,353.600 272.054,353.600 271.200 C 353.600 270.346,353.780 269.536,354.000 269.400 C 354.220 269.264,354.400 268.188,354.400 267.010 C 354.400 265.831,354.570 264.807,354.778 264.733 C 354.985 264.660,355.195 263.475,355.243 262.100 C 355.292 260.725,355.453 259.600,355.603 259.600 C 355.752 259.600,355.913 258.398,355.960 256.930 C 356.008 255.461,356.212 253.952,356.413 253.576 C 356.917 252.634,356.895 222.906,356.390 222.594 C 356.176 222.461,356.000 220.934,356.000 219.200 C 356.000 217.466,355.820 215.936,355.600 215.800 C 355.380 215.664,355.200 214.483,355.200 213.176 C 355.200 211.859,355.022 210.800,354.800 210.800 C 354.580 210.800,354.400 210.001,354.400 209.024 C 354.400 208.047,354.254 207.157,354.076 207.047 C 353.898 206.937,353.708 205.981,353.654 204.923 C 353.601 203.866,353.387 202.940,353.179 202.867 C 352.970 202.793,352.800 202.043,352.800 201.200 C 352.800 200.357,352.628 199.607,352.418 199.533 C 352.207 199.460,351.991 198.737,351.937 197.926 C 351.884 197.115,351.696 196.541,351.520 196.649 C 351.344 196.758,351.200 196.217,351.200 195.447 C 351.200 194.677,351.020 193.936,350.800 193.800 C 350.580 193.664,350.400 193.124,350.400 192.600 C 350.400 192.076,350.220 191.536,350.000 191.400 C 349.780 191.264,349.600 190.724,349.600 190.200 C 349.600 189.676,349.420 189.136,349.200 189.000 C 348.980 188.864,348.800 188.223,348.800 187.576 C 348.800 186.929,348.620 186.400,348.400 186.400 C 348.180 186.400,348.000 185.860,348.000 185.200 C 348.000 184.540,347.820 184.000,347.600 184.000 C 346.893 184.000,347.174 182.596,348.000 182.000 C 348.440 181.683,348.800 181.103,348.800 180.712 C 348.800 180.320,348.980 180.000,349.200 180.000 C 349.420 180.000,349.600 179.640,349.600 179.200 C 349.600 178.760,349.780 178.400,350.000 178.400 C 350.220 178.400,350.400 177.871,350.400 177.224 C 350.400 176.577,350.580 175.936,350.800 175.800 C 351.020 175.664,351.200 174.854,351.200 174.000 C 351.200 173.146,351.380 172.336,351.600 172.200 C 351.843 172.050,352.000 169.121,352.000 164.753 C 352.000 160.055,351.861 157.639,351.600 157.800 C 351.283 157.996,350.886 146.387,351.153 144.700 C 351.179 144.535,351.020 144.400,350.800 144.400 C 350.552 144.400,350.400 142.208,350.400 138.624 C 350.400 135.204,350.237 132.746,350.000 132.600 C 349.768 132.457,349.600 130.263,349.600 127.376 C 349.600 124.325,349.445 122.400,349.200 122.400 C 348.956 122.400,348.800 120.541,348.800 117.624 C 348.800 114.871,348.631 112.742,348.400 112.600 C 348.175 112.461,348.000 110.537,348.000 108.200 C 348.000 105.863,347.825 103.939,347.600 103.800 C 347.379 103.663,347.200 101.855,347.200 99.753 C 347.200 97.321,347.056 96.042,346.800 96.200 C 346.545 96.358,346.400 95.145,346.400 92.847 C 346.400 90.867,346.220 89.136,346.000 89.000 C 345.780 88.864,345.600 87.133,345.600 85.153 C 345.600 82.855,345.455 81.642,345.200 81.800 C 344.946 81.957,344.800 80.871,344.800 78.824 C 344.800 76.941,344.634 75.600,344.400 75.600 C 344.171 75.600,344.000 74.400,344.000 72.800 C 344.000 71.200,343.829 70.000,343.600 70.000 C 343.380 70.000,343.200 69.021,343.200 67.824 C 343.200 66.627,343.020 65.536,342.800 65.400 C 342.580 65.264,342.400 64.083,342.400 62.776 C 342.400 61.469,342.245 60.400,342.056 60.400 C 341.753 60.400,341.153 56.625,341.150 54.708 C 341.150 54.327,340.981 53.912,340.775 53.784 C 340.569 53.657,340.400 53.149,340.400 52.656 C 340.400 52.163,340.242 51.589,340.048 51.380 C 339.855 51.171,339.467 50.282,339.186 49.404 C 338.905 48.527,338.163 46.977,337.537 45.960 C 336.912 44.943,336.400 43.896,336.400 43.632 C 336.400 43.369,336.220 43.264,336.000 43.400 C 335.650 43.616,335.566 43.441,335.611 42.589 C 335.634 42.166,327.920 34.800,327.455 34.800 C 327.192 34.800,326.717 34.440,326.400 34.000 C 326.083 33.560,325.503 33.200,325.112 33.200 C 324.720 33.200,324.400 33.020,324.400 32.800 C 324.400 32.580,324.029 32.400,323.576 32.400 C 323.123 32.400,322.864 32.220,323.000 32.000 C 323.136 31.780,322.877 31.600,322.424 31.600 C 321.971 31.600,321.600 31.420,321.600 31.200 C 321.600 30.980,321.228 30.800,320.774 30.800 C 320.319 30.800,319.613 30.621,319.205 30.403 C 318.568 30.062,318.426 30.189,318.207 31.303 " stroke="none" fill="#445c64" fill-rule="evenodd"></path><path id="path3" d="M317.856 31.100 C 317.747 31.485,317.559 32.610,317.438 33.600 C 317.181 35.692,317.723 34.322,318.110 31.900 C 318.358 30.351,318.204 29.867,317.856 31.100 M216.600 91.200 C 217.040 91.389,217.670 91.544,218.000 91.544 C 218.378 91.544,218.304 91.417,217.800 91.200 C 217.360 91.011,216.730 90.856,216.400 90.856 C 216.022 90.856,216.096 90.983,216.600 91.200 M219.200 91.982 C 219.530 92.205,220.145 92.391,220.567 92.394 C 221.590 92.402,221.271 92.173,219.800 91.844 C 218.924 91.648,218.762 91.685,219.200 91.982 M222.082 92.859 C 222.367 93.040,224.040 93.176,225.800 93.162 C 229.738 93.131,229.315 92.916,224.882 92.695 C 223.057 92.604,221.797 92.678,222.082 92.859 M71.200 149.486 C 71.530 149.609,72.295 149.960,72.900 150.265 C 73.505 150.571,74.000 150.731,74.000 150.621 C 74.000 150.307,71.698 149.196,71.120 149.232 C 70.771 149.253,70.797 149.336,71.200 149.486 M76.800 152.000 C 77.130 152.213,77.670 152.388,78.000 152.388 C 78.533 152.388,78.533 152.345,78.000 152.000 C 77.670 151.787,77.130 151.612,76.800 151.612 C 76.267 151.612,76.267 151.655,76.800 152.000 M79.600 152.800 C 79.930 153.013,80.650 153.173,81.200 153.154 L 82.200 153.120 81.200 152.800 C 79.658 152.306,78.836 152.306,79.600 152.800 " stroke="none" fill="#84949c" fill-rule="evenodd"></path><path id="path4" d="M317.449 31.015 C 317.312 31.373,317.221 32.146,317.246 32.733 C 317.280 33.532,317.370 33.398,317.604 32.200 C 317.935 30.500,317.862 29.940,317.449 31.015 M316.650 35.650 C 316.317 37.317,316.640 37.640,317.000 36.000 C 317.152 35.309,317.193 34.659,317.091 34.558 C 316.989 34.456,316.791 34.947,316.650 35.650 M222.000 92.400 C 223.368 92.838,224.419 92.838,223.400 92.400 C 222.960 92.211,222.240 92.062,221.800 92.068 C 221.157 92.077,221.196 92.143,222.000 92.400 M58.914 127.400 C 58.917 128.500,58.995 128.903,59.087 128.295 C 59.179 127.686,59.177 126.786,59.082 126.295 C 58.987 125.803,58.911 126.300,58.914 127.400 M72.800 149.818 C 74.225 150.658,76.419 151.600,76.949 151.600 C 77.197 151.600,76.259 151.060,74.864 150.400 C 72.178 149.129,71.130 148.834,72.800 149.818 M78.000 151.982 C 78.330 152.205,78.945 152.391,79.367 152.394 C 80.390 152.402,80.071 152.173,78.600 151.844 C 77.724 151.648,77.562 151.685,78.000 151.982 " stroke="none" fill="#94a4a4" fill-rule="evenodd"></path></g></svg>