<svg width="18" height="14" viewBox="0 0 18 14" fill="none" xmlns="http://www.w3.org/2000/svg">
<g clip-path="url(#clip0_1459_1266)">
<rect width="18" height="14" fill="#2E42A5"/>
<path d="M-2.00427 12.9998L1.95668 14.737L18.0899 1.88874L20.1792 -0.692789L15.9435 -1.27341L9.36318 4.26328L4.06668 7.99371L-2.00427 12.9998Z" fill="#F7FCFF"/>
<path d="M-1.46201 14.2169L0.555915 15.2251L19.4289 -0.932642H16.5955L-1.46201 14.2169Z" fill="#F50100"/>
<path d="M20.0043 12.9998L16.0433 14.737L-0.08988 1.88874L-2.17919 -0.692789L2.05648 -1.27341L8.63682 4.26328L13.9333 7.99371L20.0043 12.9998Z" fill="#F7FCFF"/>
<path d="M19.8691 13.8733L17.8512 14.8815L9.81487 7.96351L7.43227 7.19058L-2.38023 -0.683949H0.453167L10.2601 7.00368L12.8651 7.9305L19.8691 13.8733Z" fill="#F50100"/>
<path fill-rule="evenodd" clip-rule="evenodd" d="M9.98451 0H7.98451V6H0V8H7.98451V14H9.98451V8H18V6H9.98451V0Z" fill="#F50100"/>
<path fill-rule="evenodd" clip-rule="evenodd" d="M6.48451 0H11.4845V4.5H18V9.5H11.4845L11.5 14H6.5L6.48451 9.5H0V4.5H6.48451V0ZM7.98451 6H0V8H7.98451V14H9.98451V8H18V6H9.98451V0H7.98451V6Z" fill="#F7FCFF"/>
</g>
<defs>
<clipPath id="clip0_1459_1266">
<rect width="18" height="14" fill="white"/>
</clipPath>
</defs>
</svg>
